# Blender 5.0.1
# www.blender.org
o Sphere
v 0.000000 0.500000 0.000000
v 0.000000 0.415735 -0.277785
v 0.000000 0.277785 -0.415735
v 0.000000 0.097545 -0.490393
v 0.000000 0.000000 -0.500000
v 0.000000 -0.097545 -0.490393
v 0.000000 -0.277785 -0.415735
v 0.000000 -0.500000 0.000000
v 0.019030 0.490393 -0.095671
v 0.037329 0.461940 -0.187665
v 0.054193 0.415735 -0.272448
v 0.068975 0.353553 -0.346760
v 0.081106 0.277785 -0.407747
v 0.090120 0.191342 -0.453064
v 0.095671 0.097545 -0.480970
v 0.097545 0.000000 -0.490393
v 0.095671 -0.097545 -0.480970
v 0.090120 -0.191342 -0.453064
v 0.081106 -0.277785 -0.407747
v 0.068975 -0.353553 -0.346760
v 0.054193 -0.415735 -0.272448
v 0.037329 -0.461940 -0.187665
v 0.019030 -0.490393 -0.095671
v 0.037329 0.490393 -0.090120
v 0.073223 0.461940 -0.176777
v 0.106304 0.415735 -0.256640
v 0.135299 0.353553 -0.326641
v 0.159095 0.277785 -0.384089
v 0.176777 0.191342 -0.426777
v 0.187665 0.097545 -0.453064
v 0.191342 0.000000 -0.461940
v 0.187665 -0.097545 -0.453064
v 0.176777 -0.191342 -0.426777
v 0.159095 -0.277785 -0.384089
v 0.135299 -0.353553 -0.326641
v 0.106304 -0.415735 -0.256640
v 0.073223 -0.461940 -0.176777
v 0.037329 -0.490393 -0.090120
v 0.054193 0.490393 -0.081106
v 0.106304 0.461940 -0.159095
v 0.154329 0.415735 -0.230970
v 0.196424 0.353553 -0.293969
v 0.230970 0.277785 -0.345671
v 0.256640 0.191342 -0.384089
v 0.272448 0.097545 -0.407747
v 0.277785 0.000000 -0.415735
v 0.272448 -0.097545 -0.407747
v 0.256640 -0.191342 -0.384089
v 0.230970 -0.277785 -0.345671
v 0.196424 -0.353553 -0.293969
v 0.154329 -0.415735 -0.230970
v 0.106304 -0.461940 -0.159095
v 0.054193 -0.490393 -0.081106
v 0.068975 0.490393 -0.068975
v 0.135299 0.461940 -0.135299
v 0.196424 0.415735 -0.196424
v 0.250000 0.353553 -0.250000
v 0.293969 0.277785 -0.293969
v 0.326641 0.191342 -0.326641
v 0.346760 0.097545 -0.346760
v 0.353553 0.000000 -0.353553
v 0.346760 -0.097545 -0.346760
v 0.326641 -0.191342 -0.326641
v 0.293969 -0.277785 -0.293969
v 0.250000 -0.353553 -0.250000
v 0.196424 -0.415735 -0.196424
v 0.135299 -0.461940 -0.135299
v 0.068975 -0.490393 -0.068975
v 0.081106 0.490393 -0.054193
v 0.159095 0.461940 -0.106304
v 0.230970 0.415735 -0.154329
v 0.293969 0.353553 -0.196424
v 0.345671 0.277785 -0.230970
v 0.384089 0.191342 -0.256640
v 0.407747 0.097545 -0.272447
v 0.415735 0.000000 -0.277785
v 0.407747 -0.097545 -0.272447
v 0.384089 -0.191342 -0.256640
v 0.345671 -0.277785 -0.230970
v 0.293969 -0.353553 -0.196424
v 0.230970 -0.415735 -0.154329
v 0.159095 -0.461940 -0.106304
v 0.081106 -0.490393 -0.054193
v 0.090120 0.490393 -0.037329
v 0.176777 0.461940 -0.073223
v 0.256640 0.415735 -0.106304
v 0.326641 0.353553 -0.135299
v 0.384089 0.277785 -0.159095
v 0.426777 0.191342 -0.176777
v 0.453064 0.097545 -0.187665
v 0.461940 0.000000 -0.191342
v 0.453064 -0.097545 -0.187665
v 0.426777 -0.191342 -0.176777
v 0.384089 -0.277785 -0.159095
v 0.326641 -0.353553 -0.135299
v 0.256640 -0.415735 -0.106304
v 0.176777 -0.461940 -0.073223
v 0.090120 -0.490393 -0.037329
v 0.095671 0.490393 -0.019030
v 0.187665 0.461940 -0.037329
v 0.272448 0.415735 -0.054193
v 0.346760 0.353553 -0.068975
v 0.407746 0.277785 -0.081106
v 0.453064 0.191342 -0.090120
v 0.480970 0.097545 -0.095671
v 0.490393 0.000000 -0.097545
v 0.480970 -0.097545 -0.095671
v 0.453064 -0.191342 -0.090120
v 0.407746 -0.277785 -0.081106
v 0.346760 -0.353553 -0.068975
v 0.272448 -0.415735 -0.054193
v 0.187665 -0.461940 -0.037329
v 0.095671 -0.490393 -0.019030
v 0.097545 0.490393 0.000000
v 0.191342 0.461940 0.000000
v 0.277785 0.415735 0.000000
v 0.353553 0.353553 -0.000000
v 0.415735 0.277785 0.000000
v 0.461940 0.191342 -0.000000
v 0.490393 0.097545 0.000000
v 0.500000 0.000000 0.000000
v 0.490393 -0.097545 0.000000
v 0.461940 -0.191342 -0.000000
v 0.415735 -0.277785 0.000000
v 0.353553 -0.353553 -0.000000
v 0.277785 -0.415735 0.000000
v 0.191342 -0.461940 0.000000
v 0.097545 -0.490393 0.000000
v 0.095671 0.490393 0.019030
v 0.187665 0.461940 0.037329
v 0.272447 0.415735 0.054193
v 0.346760 0.353553 0.068975
v 0.407746 0.277785 0.081106
v 0.453064 0.191342 0.090120
v 0.480970 0.097545 0.095671
v 0.490392 0.000000 0.097545
v 0.480970 -0.097545 0.095671
v 0.453064 -0.191342 0.090120
v 0.407746 -0.277785 0.081106
v 0.346760 -0.353553 0.068975
v 0.272447 -0.415735 0.054193
v 0.187665 -0.461940 0.037329
v 0.095671 -0.490393 0.019030
v 0.090120 0.490393 0.037329
v 0.176777 0.461940 0.073223
v 0.256640 0.415735 0.106304
v 0.326641 0.353553 0.135299
v 0.384089 0.277785 0.159095
v 0.426777 0.191342 0.176777
v 0.453064 0.097545 0.187665
v 0.461940 0.000000 0.191342
v 0.453064 -0.097545 0.187665
v 0.426777 -0.191342 0.176777
v 0.384089 -0.277785 0.159095
v 0.326641 -0.353553 0.135299
v 0.256640 -0.415735 0.106304
v 0.176777 -0.461940 0.073223
v 0.090120 -0.490393 0.037329
v 0.081106 0.490393 0.054193
v 0.159095 0.461940 0.106304
v 0.230970 0.415735 0.154329
v 0.293969 0.353553 0.196424
v 0.345671 0.277785 0.230970
v 0.384089 0.191342 0.256640
v 0.407746 0.097545 0.272448
v 0.415735 0.000000 0.277785
v 0.407746 -0.097545 0.272448
v 0.384089 -0.191342 0.256640
v 0.345671 -0.277785 0.230970
v 0.293969 -0.353553 0.196424
v 0.230970 -0.415735 0.154329
v 0.159095 -0.461940 0.106304
v 0.081106 -0.490393 0.054193
v 0.068975 0.490393 0.068975
v 0.135299 0.461940 0.135299
v 0.196424 0.415735 0.196424
v 0.250000 0.353553 0.250000
v 0.293969 0.277785 0.293969
v 0.326641 0.191342 0.326641
v 0.346760 0.097545 0.346760
v 0.353553 0.000000 0.353553
v 0.346760 -0.097545 0.346760
v 0.326641 -0.191342 0.326641
v 0.293969 -0.277785 0.293969
v 0.250000 -0.353553 0.250000
v 0.196424 -0.415735 0.196424
v 0.135299 -0.461940 0.135299
v 0.068975 -0.490393 0.068975
v 0.054193 0.490393 0.081106
v 0.106304 0.461940 0.159095
v 0.154329 0.415735 0.230970
v 0.196424 0.353553 0.293969
v 0.230970 0.277785 0.345671
v 0.256640 0.191342 0.384089
v 0.272447 0.097545 0.407746
v 0.277785 0.000000 0.415735
v 0.272447 -0.097545 0.407746
v 0.256640 -0.191342 0.384089
v 0.230970 -0.277785 0.345671
v 0.196424 -0.353553 0.293969
v 0.154329 -0.415735 0.230970
v 0.106304 -0.461940 0.159095
v 0.054193 -0.490393 0.081106
v 0.037329 0.490393 0.090120
v 0.073223 0.461940 0.176777
v 0.106304 0.415735 0.256640
v 0.135299 0.353553 0.326641
v 0.159095 0.277785 0.384089
v 0.176777 0.191342 0.426777
v 0.187665 0.097545 0.453064
v 0.191341 0.000000 0.461940
v 0.187665 -0.097545 0.453064
v 0.176777 -0.191342 0.426777
v 0.159095 -0.277785 0.384089
v 0.135299 -0.353553 0.326641
v 0.106304 -0.415735 0.256640
v 0.073223 -0.461940 0.176777
v 0.037329 -0.490393 0.090120
v 0.019030 0.490393 0.095671
v 0.037329 0.461940 0.187665
v 0.054193 0.415735 0.272447
v 0.068975 0.353553 0.346760
v 0.081106 0.277785 0.407746
v 0.090120 0.191342 0.453064
v 0.095671 0.097545 0.480970
v 0.097545 0.000000 0.490392
v 0.095671 -0.097545 0.480970
v 0.090120 -0.191342 0.453064
v 0.081106 -0.277785 0.407746
v 0.068975 -0.353553 0.346760
v 0.054193 -0.415735 0.272447
v 0.037329 -0.461940 0.187665
v 0.019030 -0.490393 0.095671
v -0.000000 0.490393 0.097545
v -0.000000 0.461940 0.191342
v -0.000000 0.415735 0.277785
v -0.000000 0.353553 0.353553
v -0.000000 0.277785 0.415735
v 0.000000 0.191342 0.461940
v -0.000000 0.097545 0.490392
v -0.000000 0.000000 0.500000
v -0.000000 -0.097545 0.490392
v 0.000000 -0.191342 0.461940
v -0.000000 -0.277785 0.415735
v -0.000000 -0.353553 0.353553
v -0.000000 -0.415735 0.277785
v -0.000000 -0.461940 0.191342
v -0.000000 -0.490393 0.097545
v -0.019030 0.490393 0.095671
v -0.037329 0.461940 0.187665
v -0.054193 0.415735 0.272447
v -0.068975 0.353553 0.346760
v -0.081106 0.277785 0.407746
v -0.090120 0.191342 0.453064
v -0.095671 0.097545 0.480970
v -0.097545 0.000000 0.490392
v -0.095671 -0.097545 0.480970
v -0.090120 -0.191342 0.453064
v -0.081106 -0.277785 0.407746
v -0.068975 -0.353553 0.346760
v -0.054193 -0.415735 0.272447
v -0.037329 -0.461940 0.187665
v -0.019030 -0.490393 0.095671
v -0.037329 0.490393 0.090120
v -0.073223 0.461940 0.176777
v -0.106304 0.415735 0.256640
v -0.135299 0.353553 0.326641
v -0.159095 0.277785 0.384089
v -0.176777 0.191342 0.426777
v -0.187665 0.097545 0.453064
v -0.191342 0.000000 0.461939
v -0.187665 -0.097545 0.453064
v -0.176777 -0.191342 0.426777
v -0.159095 -0.277785 0.384089
v -0.135299 -0.353553 0.326641
v -0.106304 -0.415735 0.256640
v -0.073223 -0.461940 0.176777
v -0.037329 -0.490393 0.090120
v -0.054193 0.490393 0.081106
v -0.106304 0.461940 0.159095
v -0.154329 0.415735 0.230970
v -0.196424 0.353553 0.293969
v -0.230970 0.277785 0.345671
v -0.256640 0.191342 0.384089
v -0.272448 0.097545 0.407746
v -0.277785 0.000000 0.415734
v -0.272448 -0.097545 0.407746
v -0.256640 -0.191342 0.384089
v -0.230970 -0.277785 0.345671
v -0.196424 -0.353553 0.293969
v -0.154329 -0.415735 0.230970
v -0.106304 -0.461940 0.159095
v -0.054193 -0.490393 0.081106
v -0.068975 0.490393 0.068975
v -0.135299 0.461940 0.135299
v -0.196424 0.415735 0.196424
v -0.250000 0.353553 0.250000
v -0.293969 0.277785 0.293969
v -0.326641 0.191342 0.326641
v -0.346760 0.097545 0.346760
v -0.353553 0.000000 0.353553
v -0.346760 -0.097545 0.346760
v -0.326641 -0.191342 0.326641
v -0.293969 -0.277785 0.293969
v -0.250000 -0.353553 0.250000
v -0.196424 -0.415735 0.196424
v -0.135299 -0.461940 0.135299
v -0.068975 -0.490393 0.068975
v -0.081106 0.490393 0.054193
v -0.159095 0.461940 0.106304
v -0.230970 0.415735 0.154329
v -0.293969 0.353553 0.196424
v -0.345671 0.277785 0.230970
v -0.384089 0.191342 0.256640
v -0.407746 0.097545 0.272447
v -0.415735 0.000000 0.277785
v -0.407746 -0.097545 0.272447
v -0.384089 -0.191342 0.256640
v -0.345671 -0.277785 0.230970
v -0.293969 -0.353553 0.196424
v -0.230970 -0.415735 0.154329
v -0.159095 -0.461940 0.106304
v -0.081106 -0.490393 0.054193
v -0.090120 0.490393 0.037329
v -0.176777 0.461940 0.073223
v -0.256640 0.415735 0.106304
v -0.326641 0.353553 0.135299
v -0.384089 0.277785 0.159095
v -0.426777 0.191342 0.176777
v -0.453064 0.097545 0.187665
v -0.461939 0.000000 0.191341
v -0.453064 -0.097545 0.187665
v -0.426777 -0.191342 0.176777
v -0.384089 -0.277785 0.159095
v -0.326641 -0.353553 0.135299
v -0.256640 -0.415735 0.106304
v -0.176777 -0.461940 0.073223
v -0.090120 -0.490393 0.037329
v -0.095671 0.490393 0.019030
v -0.187665 0.461940 0.037329
v -0.272447 0.415735 0.054193
v -0.346760 0.353553 0.068975
v -0.407746 0.277785 0.081106
v -0.453064 0.191342 0.090120
v -0.480970 0.097545 0.095671
v -0.490392 0.000000 0.097545
v -0.480970 -0.097545 0.095671
v -0.453064 -0.191342 0.090120
v -0.407746 -0.277785 0.081106
v -0.346760 -0.353553 0.068975
v -0.272447 -0.415735 0.054193
v -0.187665 -0.461940 0.037329
v -0.095671 -0.490393 0.019030
v -0.097545 0.490393 -0.000000
v -0.191342 0.461940 -0.000000
v -0.277785 0.415735 -0.000000
v -0.353553 0.353553 -0.000000
v -0.415735 0.277785 -0.000000
v -0.461940 0.191342 -0.000000
v -0.490392 0.097545 -0.000000
v -0.500000 0.000000 -0.000000
v -0.490392 -0.097545 -0.000000
v -0.461940 -0.191342 -0.000000
v -0.415735 -0.277785 -0.000000
v -0.353553 -0.353553 -0.000000
v -0.277785 -0.415735 -0.000000
v -0.191342 -0.461940 -0.000000
v -0.097545 -0.490393 -0.000000
v -0.095671 0.490393 -0.019030
v -0.187665 0.461940 -0.037329
v -0.272447 0.415735 -0.054193
v -0.346760 0.353553 -0.068975
v -0.407746 0.277785 -0.081106
v -0.453064 0.191342 -0.090120
v -0.480970 0.097545 -0.095671
v -0.490392 0.000000 -0.097545
v -0.480970 -0.097545 -0.095671
v -0.453064 -0.191342 -0.090120
v -0.407746 -0.277785 -0.081106
v -0.346760 -0.353553 -0.068975
v -0.272447 -0.415735 -0.054193
v -0.187665 -0.461940 -0.037329
v -0.095671 -0.490393 -0.019030
v -0.090120 0.490393 -0.037329
v -0.176777 0.461940 -0.073223
v -0.256640 0.415735 -0.106304
v -0.326641 0.353553 -0.135299
v -0.384089 0.277785 -0.159095
v -0.426776 0.191342 -0.176777
v -0.453063 0.097545 -0.187665
v -0.461939 0.000000 -0.191342
v -0.453063 -0.097545 -0.187665
v -0.426776 -0.191342 -0.176777
v -0.384089 -0.277785 -0.159095
v -0.326641 -0.353553 -0.135299
v -0.256640 -0.415735 -0.106304
v -0.176777 -0.461940 -0.073223
v -0.090120 -0.490393 -0.037329
v -0.081106 0.490393 -0.054193
v -0.159095 0.461940 -0.106304
v -0.230970 0.415735 -0.154329
v -0.293969 0.353553 -0.196424
v -0.345671 0.277785 -0.230970
v -0.384089 0.191342 -0.256640
v -0.407746 0.097545 -0.272448
v -0.415734 0.000000 -0.277785
v -0.407746 -0.097545 -0.272448
v -0.384089 -0.191342 -0.256640
v -0.345671 -0.277785 -0.230970
v -0.293969 -0.353553 -0.196424
v -0.230970 -0.415735 -0.154329
v -0.159095 -0.461940 -0.106304
v -0.081106 -0.490393 -0.054193
v -0.068975 0.490393 -0.068975
v -0.135299 0.461940 -0.135299
v -0.196423 0.415735 -0.196424
v -0.250000 0.353553 -0.250000
v -0.293969 0.277785 -0.293969
v -0.326641 0.191342 -0.326641
v -0.346760 0.097545 -0.346760
v -0.353553 0.000000 -0.353553
v -0.346760 -0.097545 -0.346760
v -0.326641 -0.191342 -0.326641
v -0.293969 -0.277785 -0.293969
v -0.250000 -0.353553 -0.250000
v -0.196423 -0.415735 -0.196424
v -0.135299 -0.461940 -0.135299
v -0.068975 -0.490393 -0.068975
v -0.054193 0.490393 -0.081106
v -0.106304 0.461940 -0.159095
v -0.154329 0.415735 -0.230970
v -0.196424 0.353553 -0.293969
v -0.230970 0.277785 -0.345671
v -0.256640 0.191342 -0.384089
v -0.272447 0.097545 -0.407746
v -0.277785 0.000000 -0.415734
v -0.272447 -0.097545 -0.407746
v -0.256640 -0.191342 -0.384089
v -0.230970 -0.277785 -0.345671
v -0.196424 -0.353553 -0.293969
v -0.154329 -0.415735 -0.230970
v -0.106304 -0.461940 -0.159095
v -0.054193 -0.490393 -0.081106
v -0.037329 0.490393 -0.090120
v -0.073223 0.461940 -0.176777
v -0.106304 0.415735 -0.256640
v -0.135299 0.353553 -0.326641
v -0.159095 0.277785 -0.384089
v -0.176777 0.191342 -0.426776
v -0.187665 0.097545 -0.453063
v -0.191341 0.000000 -0.461939
v -0.187665 -0.097545 -0.453063
v -0.176777 -0.191342 -0.426776
v -0.159095 -0.277785 -0.384089
v -0.135299 -0.353553 -0.326641
v -0.106304 -0.415735 -0.256640
v -0.073223 -0.461940 -0.176777
v -0.037329 -0.490393 -0.090120
v -0.019030 0.490393 -0.095671
v -0.037329 0.461940 -0.187665
v -0.054193 0.415735 -0.272447
v -0.068975 0.353553 -0.346760
v -0.081106 0.277785 -0.407746
v -0.090120 0.191342 -0.453063
v -0.095671 0.097545 -0.480970
v -0.097545 0.000000 -0.490392
v -0.095671 -0.097545 -0.480970
v -0.090120 -0.191342 -0.453063
v -0.081106 -0.277785 -0.407746
v -0.068975 -0.353553 -0.346760
v -0.054193 -0.415735 -0.272447
v -0.037329 -0.461940 -0.187665
v -0.019030 -0.490393 -0.095671
v 0.000000 0.490393 -0.097545
v 0.000000 0.461940 -0.191342
v 0.000000 0.353553 -0.353553
v 0.000000 0.191342 -0.461940
v 0.000000 -0.191342 -0.461940
v 0.000000 -0.353553 -0.353553
v 0.000000 -0.415735 -0.277785
v 0.000000 -0.461940 -0.191342
v 0.000000 -0.490393 -0.097545
vn 0.0865 -0.4696 -0.8786
vn 0.0624 0.7715 -0.6332
vn 0.0759 -0.6326 -0.7708
vn 0.0759 0.6326 -0.7708
vn 0.0624 -0.7715 -0.6332
vn 0.0865 0.4696 -0.8786
vn 0.0464 -0.8810 -0.4709
vn 0.0938 0.2890 -0.9527
vn 0.0286 -0.9565 -0.2902
vn 0.0975 0.0975 -0.9904
vn 0.0097 0.9951 -0.0980
vn 0.0097 -0.9951 -0.0980
vn 0.0975 -0.0975 -0.9904
vn 0.0286 0.9565 -0.2902
vn 0.0938 -0.2890 -0.9527
vn 0.0464 0.8810 -0.4709
vn 0.0846 0.9565 -0.2790
vn 0.2779 -0.2890 -0.9161
vn 0.1374 0.8810 -0.4528
vn 0.2563 -0.4696 -0.8448
vn 0.1847 0.7715 -0.6088
vn 0.2248 -0.6326 -0.7412
vn 0.2248 0.6326 -0.7412
vn 0.1847 -0.7715 -0.6088
vn 0.2563 0.4696 -0.8448
vn 0.1374 -0.8810 -0.4528
vn 0.2779 0.2890 -0.9161
vn 0.0846 -0.9565 -0.2790
vn 0.2889 0.0976 -0.9524
vn 0.0286 0.9951 -0.0942
vn 0.0286 -0.9951 -0.0942
vn 0.2889 -0.0976 -0.9524
vn 0.4162 0.4696 -0.7786
vn 0.2230 -0.8810 -0.4173
vn 0.4513 0.2890 -0.8443
vn 0.1374 -0.9565 -0.2571
vn 0.4691 0.0975 -0.8777
vn 0.0464 0.9951 -0.0869
vn 0.0464 -0.9951 -0.0869
vn 0.4691 -0.0975 -0.8777
vn 0.1374 0.9565 -0.2571
vn 0.4513 -0.2890 -0.8443
vn 0.2230 0.8810 -0.4173
vn 0.4162 -0.4696 -0.7786
vn 0.2999 0.7715 -0.5611
vn 0.3651 -0.6326 -0.6831
vn 0.3651 0.6326 -0.6831
vn 0.2999 -0.7715 -0.5611
vn 0.6073 -0.2890 -0.7400
vn 0.3002 0.8810 -0.3658
vn 0.5601 -0.4696 -0.6825
vn 0.4036 0.7715 -0.4918
vn 0.4913 -0.6326 -0.5987
vn 0.4913 0.6326 -0.5987
vn 0.4036 -0.7715 -0.4918
vn 0.5601 0.4696 -0.6825
vn 0.3002 -0.8810 -0.3658
vn 0.6073 0.2890 -0.7400
vn 0.1850 -0.9565 -0.2254
vn 0.6314 0.0975 -0.7693
vn 0.0625 0.9951 -0.0761
vn 0.0625 -0.9951 -0.0761
vn 0.6314 -0.0975 -0.7693
vn 0.1850 0.9565 -0.2254
vn 0.3658 -0.8810 -0.3002
vn 0.7400 0.2890 -0.6073
vn 0.2254 -0.9565 -0.1850
vn 0.7693 0.0975 -0.6314
vn 0.0761 0.9951 -0.0625
vn 0.0761 -0.9951 -0.0625
vn 0.7693 -0.0975 -0.6314
vn 0.2254 0.9565 -0.1850
vn 0.7400 -0.2890 -0.6073
vn 0.3658 0.8810 -0.3002
vn 0.6825 -0.4696 -0.5601
vn 0.4918 0.7715 -0.4036
vn 0.5987 -0.6326 -0.4913
vn 0.5987 0.6326 -0.4913
vn 0.4918 -0.7715 -0.4036
vn 0.6825 0.4696 -0.5601
vn 0.7786 -0.4696 -0.4162
vn 0.5611 0.7715 -0.2999
vn 0.6831 -0.6326 -0.3651
vn 0.6831 0.6326 -0.3651
vn 0.5611 -0.7715 -0.2999
vn 0.7786 0.4696 -0.4162
vn 0.4173 -0.8810 -0.2230
vn 0.8443 0.2890 -0.4513
vn 0.2571 -0.9565 -0.1374
vn 0.8777 0.0975 -0.4691
vn 0.0869 0.9951 -0.0464
vn 0.0869 -0.9951 -0.0464
vn 0.8777 -0.0975 -0.4691
vn 0.2571 0.9565 -0.1374
vn 0.8443 -0.2890 -0.4513
vn 0.4173 0.8810 -0.2230
vn 0.2790 -0.9565 -0.0846
vn 0.9524 0.0975 -0.2889
vn 0.0942 0.9951 -0.0286
vn 0.0942 -0.9951 -0.0286
vn 0.9524 -0.0975 -0.2889
vn 0.2790 0.9565 -0.0846
vn 0.9161 -0.2890 -0.2779
vn 0.4528 0.8810 -0.1374
vn 0.8448 -0.4696 -0.2563
vn 0.6088 0.7715 -0.1847
vn 0.7412 -0.6326 -0.2248
vn 0.7412 0.6326 -0.2248
vn 0.6088 -0.7715 -0.1847
vn 0.8448 0.4696 -0.2563
vn 0.4528 -0.8810 -0.1374
vn 0.9161 0.2890 -0.2779
vn 0.6332 0.7715 -0.0624
vn 0.7708 -0.6326 -0.0759
vn 0.7708 0.6326 -0.0759
vn 0.6332 -0.7715 -0.0624
vn 0.8786 0.4696 -0.0865
vn 0.4709 -0.8810 -0.0464
vn 0.9527 0.2890 -0.0938
vn 0.2902 -0.9565 -0.0286
vn 0.9904 0.0975 -0.0975
vn 0.0980 0.9951 -0.0097
vn 0.0980 -0.9951 -0.0097
vn 0.9904 -0.0975 -0.0975
vn 0.2902 0.9565 -0.0286
vn 0.9527 -0.2890 -0.0938
vn 0.4709 0.8810 -0.0464
vn 0.8786 -0.4696 -0.0865
vn 0.9904 0.0975 0.0976
vn 0.0980 0.9951 0.0097
vn 0.0980 -0.9951 0.0097
vn 0.9904 -0.0975 0.0976
vn 0.2902 0.9565 0.0286
vn 0.9527 -0.2890 0.0938
vn 0.4709 0.8810 0.0464
vn 0.8786 -0.4696 0.0865
vn 0.6332 0.7715 0.0624
vn 0.7708 -0.6326 0.0759
vn 0.7708 0.6326 0.0759
vn 0.6332 -0.7715 0.0624
vn 0.8786 0.4696 0.0865
vn 0.4709 -0.8810 0.0464
vn 0.9527 0.2890 0.0938
vn 0.2902 -0.9565 0.0286
vn 0.7412 -0.6326 0.2248
vn 0.7412 0.6326 0.2248
vn 0.6088 -0.7715 0.1847
vn 0.8448 0.4696 0.2563
vn 0.4528 -0.8810 0.1374
vn 0.9161 0.2890 0.2779
vn 0.2790 -0.9565 0.0846
vn 0.9524 0.0975 0.2889
vn 0.0942 0.9951 0.0286
vn 0.0942 -0.9951 0.0286
vn 0.9524 -0.0975 0.2889
vn 0.2790 0.9565 0.0846
vn 0.9161 -0.2890 0.2779
vn 0.4528 0.8810 0.1374
vn 0.8448 -0.4696 0.2563
vn 0.6088 0.7715 0.1847
vn 0.0869 0.9951 0.0464
vn 0.0869 -0.9951 0.0464
vn 0.8777 -0.0975 0.4691
vn 0.2571 0.9565 0.1374
vn 0.8443 -0.2890 0.4513
vn 0.4173 0.8810 0.2230
vn 0.7786 -0.4696 0.4162
vn 0.5611 0.7715 0.2999
vn 0.6831 -0.6326 0.3651
vn 0.6831 0.6326 0.3651
vn 0.5611 -0.7715 0.2999
vn 0.7786 0.4696 0.4162
vn 0.4173 -0.8810 0.2230
vn 0.8443 0.2890 0.4513
vn 0.2571 -0.9565 0.1374
vn 0.8777 0.0975 0.4691
vn 0.5987 0.6326 0.4913
vn 0.4918 -0.7715 0.4036
vn 0.6825 0.4696 0.5601
vn 0.3658 -0.8810 0.3002
vn 0.7400 0.2890 0.6073
vn 0.2254 -0.9565 0.1850
vn 0.7693 0.0975 0.6314
vn 0.0761 0.9951 0.0625
vn 0.0761 -0.9951 0.0625
vn 0.7693 -0.0975 0.6314
vn 0.2254 0.9565 0.1850
vn 0.7400 -0.2890 0.6073
vn 0.3658 0.8810 0.3002
vn 0.6825 -0.4696 0.5601
vn 0.4918 0.7715 0.4036
vn 0.5987 -0.6326 0.4913
vn 0.6314 -0.0975 0.7693
vn 0.1850 0.9565 0.2254
vn 0.6073 -0.2890 0.7400
vn 0.3002 0.8810 0.3658
vn 0.5601 -0.4696 0.6825
vn 0.4036 0.7715 0.4918
vn 0.4913 -0.6326 0.5987
vn 0.4913 0.6326 0.5987
vn 0.4036 -0.7715 0.4918
vn 0.5601 0.4696 0.6825
vn 0.3002 -0.8810 0.3658
vn 0.6073 0.2890 0.7400
vn 0.1850 -0.9565 0.2254
vn 0.6314 0.0975 0.7693
vn 0.0625 0.9951 0.0761
vn 0.0625 -0.9951 0.0761
vn 0.2999 -0.7715 0.5611
vn 0.4162 0.4696 0.7786
vn 0.2230 -0.8810 0.4173
vn 0.4513 0.2890 0.8443
vn 0.1374 -0.9565 0.2571
vn 0.4691 0.0975 0.8777
vn 0.0464 0.9951 0.0869
vn 0.0464 -0.9951 0.0869
vn 0.4691 -0.0975 0.8777
vn 0.1374 0.9565 0.2571
vn 0.4513 -0.2890 0.8443
vn 0.2230 0.8810 0.4173
vn 0.4162 -0.4696 0.7786
vn 0.2999 0.7715 0.5611
vn 0.3651 -0.6326 0.6831
vn 0.3651 0.6326 0.6831
vn 0.2779 -0.2890 0.9161
vn 0.1374 0.8810 0.4528
vn 0.2563 -0.4696 0.8448
vn 0.1847 0.7715 0.6088
vn 0.2248 -0.6326 0.7412
vn 0.2248 0.6326 0.7412
vn 0.1847 -0.7715 0.6088
vn 0.2563 0.4696 0.8448
vn 0.1374 -0.8810 0.4528
vn 0.2779 0.2890 0.9161
vn 0.0846 -0.9565 0.2790
vn 0.2889 0.0975 0.9524
vn 0.0286 0.9951 0.0942
vn 0.0286 -0.9951 0.0942
vn 0.2889 -0.0975 0.9524
vn 0.0846 0.9565 0.2790
vn 0.0464 -0.8810 0.4709
vn 0.0938 0.2890 0.9527
vn 0.0286 -0.9565 0.2902
vn 0.0975 0.0975 0.9904
vn 0.0097 0.9951 0.0980
vn 0.0097 -0.9951 0.0980
vn 0.0975 -0.0975 0.9904
vn 0.0286 0.9565 0.2902
vn 0.0938 -0.2890 0.9527
vn 0.0464 0.8810 0.4709
vn 0.0865 -0.4696 0.8786
vn 0.0624 0.7715 0.6332
vn 0.0759 -0.6326 0.7708
vn 0.0759 0.6326 0.7708
vn 0.0624 -0.7715 0.6332
vn 0.0865 0.4696 0.8786
vn -0.0464 0.8810 0.4709
vn -0.0865 -0.4696 0.8786
vn -0.0624 0.7715 0.6332
vn -0.0759 -0.6326 0.7708
vn -0.0759 0.6326 0.7708
vn -0.0624 -0.7715 0.6332
vn -0.0865 0.4696 0.8786
vn -0.0464 -0.8810 0.4709
vn -0.0938 0.2890 0.9527
vn -0.0286 -0.9565 0.2902
vn -0.0976 0.0975 0.9904
vn -0.0097 0.9951 0.0980
vn -0.0097 -0.9951 0.0980
vn -0.0976 -0.0975 0.9904
vn -0.0286 0.9565 0.2902
vn -0.0938 -0.2890 0.9527
vn -0.2779 0.2890 0.9161
vn -0.0846 -0.9565 0.2790
vn -0.2889 0.0975 0.9524
vn -0.0286 0.9951 0.0942
vn -0.0286 -0.9951 0.0942
vn -0.2889 -0.0975 0.9524
vn -0.0846 0.9565 0.2790
vn -0.2779 -0.2890 0.9161
vn -0.1374 0.8810 0.4528
vn -0.2563 -0.4696 0.8448
vn -0.1847 0.7715 0.6088
vn -0.2248 -0.6326 0.7412
vn -0.2248 0.6326 0.7412
vn -0.1847 -0.7715 0.6088
vn -0.2563 0.4696 0.8448
vn -0.1374 -0.8810 0.4528
vn -0.4162 -0.4696 0.7786
vn -0.2999 0.7715 0.5611
vn -0.3651 -0.6326 0.6831
vn -0.3651 0.6326 0.6831
vn -0.2999 -0.7715 0.5611
vn -0.4162 0.4696 0.7786
vn -0.2230 -0.8810 0.4173
vn -0.4513 0.2890 0.8443
vn -0.1374 -0.9565 0.2571
vn -0.4691 0.0975 0.8777
vn -0.0464 0.9951 0.0869
vn -0.0464 -0.9951 0.0869
vn -0.4691 -0.0975 0.8777
vn -0.1374 0.9565 0.2571
vn -0.4513 -0.2890 0.8443
vn -0.2230 0.8810 0.4173
vn -0.1850 -0.9565 0.2254
vn -0.6314 0.0975 0.7693
vn -0.0625 0.9951 0.0761
vn -0.0625 -0.9951 0.0761
vn -0.6314 -0.0975 0.7693
vn -0.1850 0.9565 0.2254
vn -0.6073 -0.2890 0.7400
vn -0.3002 0.8810 0.3658
vn -0.5601 -0.4696 0.6825
vn -0.4036 0.7715 0.4918
vn -0.4913 -0.6326 0.5987
vn -0.4913 0.6326 0.5987
vn -0.4036 -0.7715 0.4918
vn -0.5601 0.4696 0.6825
vn -0.3002 -0.8810 0.3658
vn -0.6073 0.2890 0.7400
vn -0.4918 0.7715 0.4036
vn -0.5987 -0.6326 0.4913
vn -0.5987 0.6326 0.4913
vn -0.4918 -0.7715 0.4036
vn -0.6825 0.4696 0.5601
vn -0.3658 -0.8810 0.3002
vn -0.7400 0.2890 0.6073
vn -0.2254 -0.9565 0.1850
vn -0.7693 0.0975 0.6314
vn -0.0761 0.9951 0.0625
vn -0.0761 -0.9951 0.0625
vn -0.7693 -0.0975 0.6314
vn -0.2254 0.9565 0.1850
vn -0.7400 -0.2890 0.6073
vn -0.3658 0.8810 0.3002
vn -0.6825 -0.4696 0.5601
vn -0.8777 0.0975 0.4691
vn -0.0869 0.9951 0.0464
vn -0.0869 -0.9951 0.0464
vn -0.8777 -0.0975 0.4691
vn -0.2571 0.9565 0.1374
vn -0.8443 -0.2890 0.4513
vn -0.4173 0.8810 0.2230
vn -0.7786 -0.4696 0.4162
vn -0.5611 0.7715 0.2999
vn -0.6831 -0.6326 0.3651
vn -0.6831 0.6326 0.3651
vn -0.5611 -0.7715 0.2999
vn -0.7786 0.4696 0.4162
vn -0.4173 -0.8810 0.2230
vn -0.8443 0.2890 0.4513
vn -0.2571 -0.9565 0.1374
vn -0.7412 -0.6326 0.2248
vn -0.7412 0.6326 0.2248
vn -0.6088 -0.7715 0.1847
vn -0.8448 0.4696 0.2563
vn -0.4528 -0.8810 0.1374
vn -0.9161 0.2890 0.2779
vn -0.2790 -0.9565 0.0846
vn -0.9524 0.0975 0.2889
vn -0.0942 0.9951 0.0286
vn -0.0942 -0.9951 0.0286
vn -0.9524 -0.0975 0.2889
vn -0.2790 0.9565 0.0846
vn -0.9161 -0.2890 0.2779
vn -0.4528 0.8810 0.1374
vn -0.8448 -0.4696 0.2563
vn -0.6088 0.7715 0.1847
vn -0.0980 -0.9951 0.0097
vn -0.9904 -0.0975 0.0975
vn -0.2902 0.9565 0.0286
vn -0.9527 -0.2890 0.0938
vn -0.4709 0.8810 0.0464
vn -0.8786 -0.4696 0.0865
vn -0.6332 0.7715 0.0624
vn -0.7708 -0.6326 0.0759
vn -0.7708 0.6326 0.0759
vn -0.6332 -0.7715 0.0624
vn -0.8786 0.4696 0.0865
vn -0.4709 -0.8810 0.0464
vn -0.9527 0.2890 0.0938
vn -0.2902 -0.9565 0.0286
vn -0.9904 0.0975 0.0975
vn -0.0980 0.9951 0.0097
vn -0.6332 -0.7715 -0.0624
vn -0.8786 0.4696 -0.0865
vn -0.4709 -0.8810 -0.0464
vn -0.9527 0.2890 -0.0938
vn -0.2902 -0.9565 -0.0286
vn -0.9904 0.0975 -0.0976
vn -0.0980 0.9951 -0.0097
vn -0.0980 -0.9951 -0.0097
vn -0.9904 -0.0975 -0.0976
vn -0.2902 0.9565 -0.0286
vn -0.9527 -0.2890 -0.0938
vn -0.4709 0.8810 -0.0464
vn -0.8786 -0.4696 -0.0865
vn -0.6332 0.7715 -0.0624
vn -0.7708 -0.6326 -0.0759
vn -0.7708 0.6326 -0.0759
vn -0.2790 0.9565 -0.0846
vn -0.9161 -0.2890 -0.2779
vn -0.4528 0.8810 -0.1374
vn -0.8448 -0.4696 -0.2563
vn -0.6088 0.7715 -0.1847
vn -0.7412 -0.6326 -0.2248
vn -0.7412 0.6326 -0.2248
vn -0.6088 -0.7715 -0.1847
vn -0.8448 0.4696 -0.2563
vn -0.4528 -0.8810 -0.1374
vn -0.9161 0.2890 -0.2779
vn -0.2790 -0.9565 -0.0846
vn -0.9524 0.0975 -0.2889
vn -0.0942 0.9951 -0.0286
vn -0.0942 -0.9951 -0.0286
vn -0.9524 -0.0975 -0.2889
vn -0.7786 0.4696 -0.4162
vn -0.4173 -0.8810 -0.2231
vn -0.8443 0.2890 -0.4513
vn -0.2571 -0.9565 -0.1374
vn -0.8777 0.0975 -0.4691
vn -0.0869 0.9951 -0.0464
vn -0.0869 -0.9951 -0.0464
vn -0.8777 -0.0975 -0.4691
vn -0.2571 0.9565 -0.1374
vn -0.8443 -0.2890 -0.4513
vn -0.4173 0.8810 -0.2231
vn -0.7786 -0.4696 -0.4162
vn -0.5611 0.7715 -0.2999
vn -0.6831 -0.6326 -0.3651
vn -0.6831 0.6326 -0.3651
vn -0.5611 -0.7715 -0.2999
vn -0.7400 -0.2890 -0.6073
vn -0.3658 0.8810 -0.3002
vn -0.6825 -0.4696 -0.5601
vn -0.4918 0.7715 -0.4036
vn -0.5987 -0.6326 -0.4913
vn -0.5987 0.6326 -0.4913
vn -0.4918 -0.7715 -0.4036
vn -0.6825 0.4696 -0.5601
vn -0.3658 -0.8810 -0.3002
vn -0.7400 0.2890 -0.6073
vn -0.2254 -0.9565 -0.1850
vn -0.7693 0.0975 -0.6314
vn -0.0761 0.9951 -0.0625
vn -0.0761 -0.9951 -0.0625
vn -0.7693 -0.0975 -0.6314
vn -0.2254 0.9565 -0.1850
vn -0.3002 -0.8810 -0.3658
vn -0.6073 0.2890 -0.7400
vn -0.1850 -0.9565 -0.2254
vn -0.6314 0.0975 -0.7693
vn -0.0625 0.9951 -0.0761
vn -0.0625 -0.9951 -0.0761
vn -0.6314 -0.0975 -0.7693
vn -0.1850 0.9565 -0.2254
vn -0.6073 -0.2890 -0.7400
vn -0.3002 0.8810 -0.3658
vn -0.5601 -0.4696 -0.6825
vn -0.4036 0.7715 -0.4918
vn -0.4913 -0.6326 -0.5987
vn -0.4913 0.6326 -0.5987
vn -0.4036 -0.7715 -0.4918
vn -0.5601 0.4696 -0.6825
vn -0.2230 0.8810 -0.4173
vn -0.4162 -0.4696 -0.7786
vn -0.2999 0.7715 -0.5611
vn -0.3651 -0.6326 -0.6831
vn -0.3651 0.6326 -0.6831
vn -0.2999 -0.7715 -0.5611
vn -0.4162 0.4696 -0.7786
vn -0.2230 -0.8810 -0.4173
vn -0.4513 0.2890 -0.8443
vn -0.1374 -0.9565 -0.2571
vn -0.4691 0.0975 -0.8777
vn -0.0464 0.9951 -0.0869
vn -0.0464 -0.9951 -0.0869
vn -0.4691 -0.0975 -0.8777
vn -0.1374 0.9565 -0.2571
vn -0.4513 -0.2890 -0.8443
vn -0.2779 0.2890 -0.9161
vn -0.0846 -0.9565 -0.2790
vn -0.2889 0.0975 -0.9524
vn -0.0286 0.9951 -0.0942
vn -0.0286 -0.9951 -0.0942
vn -0.2889 -0.0975 -0.9524
vn -0.0846 0.9565 -0.2790
vn -0.2779 -0.2890 -0.9161
vn -0.1374 0.8810 -0.4528
vn -0.2563 -0.4696 -0.8448
vn -0.1847 0.7715 -0.6088
vn -0.2248 -0.6326 -0.7412
vn -0.2248 0.6326 -0.7412
vn -0.1847 -0.7715 -0.6088
vn -0.2563 0.4696 -0.8448
vn -0.1374 -0.8810 -0.4528
vn -0.0865 -0.4696 -0.8786
vn -0.0624 0.7715 -0.6332
vn -0.0759 -0.6326 -0.7708
vn -0.0759 0.6326 -0.7708
vn -0.0624 -0.7715 -0.6332
vn -0.0865 0.4696 -0.8786
vn -0.0464 -0.8810 -0.4709
vn -0.0938 0.2890 -0.9527
vn -0.0286 -0.9565 -0.2902
vn -0.0976 0.0975 -0.9904
vn -0.0097 0.9951 -0.0980
vn -0.0097 -0.9951 -0.0980
vn -0.0976 -0.0975 -0.9904
vn -0.0286 0.9565 -0.2902
vn -0.0938 -0.2890 -0.9527
vn -0.0464 0.8810 -0.4709
vt 0.750000 0.312500
vt 0.750000 0.375000
vt 0.718750 0.375000
vt 0.718750 0.312500
vt 0.750000 0.750000
vt 0.750000 0.812500
vt 0.718750 0.812500
vt 0.718750 0.750000
vt 0.750000 0.250000
vt 0.718750 0.250000
vt 0.750000 0.687500
vt 0.718750 0.687500
vt 0.750000 0.187500
vt 0.718750 0.187500
vt 0.750000 0.625000
vt 0.718750 0.625000
vt 0.750000 0.125000
vt 0.718750 0.125000
vt 0.750000 0.562500
vt 0.718750 0.562500
vt 0.750000 0.062500
vt 0.718750 0.062500
vt 0.750000 0.500000
vt 0.718750 0.500000
vt 0.750000 0.937500
vt 0.734375 1.000000
vt 0.718750 0.937500
vt 0.734375 0.000000
vt 0.750000 0.437500
vt 0.718750 0.437500
vt 0.750000 0.875000
vt 0.718750 0.875000
vt 0.687500 0.937500
vt 0.687500 0.875000
vt 0.687500 0.437500
vt 0.687500 0.375000
vt 0.687500 0.812500
vt 0.687500 0.312500
vt 0.687500 0.750000
vt 0.687500 0.250000
vt 0.687500 0.687500
vt 0.687500 0.187500
vt 0.687500 0.625000
vt 0.687500 0.125000
vt 0.687500 0.562500
vt 0.687500 0.062500
vt 0.687500 0.500000
vt 0.703125 1.000000
vt 0.703125 0.000000
vt 0.656250 0.687500
vt 0.656250 0.625000
vt 0.656250 0.187500
vt 0.656250 0.125000
vt 0.656250 0.562500
vt 0.656250 0.062500
vt 0.656250 0.500000
vt 0.671875 1.000000
vt 0.656250 0.937500
vt 0.671875 0.000000
vt 0.656250 0.437500
vt 0.656250 0.875000
vt 0.656250 0.375000
vt 0.656250 0.812500
vt 0.656250 0.312500
vt 0.656250 0.750000
vt 0.656250 0.250000
vt 0.625000 0.437500
vt 0.625000 0.375000
vt 0.625000 0.875000
vt 0.625000 0.812500
vt 0.625000 0.312500
vt 0.625000 0.750000
vt 0.625000 0.250000
vt 0.625000 0.687500
vt 0.625000 0.187500
vt 0.625000 0.625000
vt 0.625000 0.125000
vt 0.625000 0.562500
vt 0.625000 0.062500
vt 0.625000 0.500000
vt 0.640625 1.000000
vt 0.625000 0.937500
vt 0.640625 0.000000
vt 0.593750 0.187500
vt 0.593750 0.125000
vt 0.593750 0.625000
vt 0.593750 0.562500
vt 0.593750 0.062500
vt 0.593750 0.500000
vt 0.609375 1.000000
vt 0.593750 0.937500
vt 0.609375 0.000000
vt 0.593750 0.437500
vt 0.593750 0.875000
vt 0.593750 0.375000
vt 0.593750 0.812500
vt 0.593750 0.312500
vt 0.593750 0.750000
vt 0.593750 0.250000
vt 0.593750 0.687500
vt 0.562500 0.375000
vt 0.562500 0.312500
vt 0.562500 0.812500
vt 0.562500 0.750000
vt 0.562500 0.250000
vt 0.562500 0.687500
vt 0.562500 0.187500
vt 0.562500 0.625000
vt 0.562500 0.125000
vt 0.562500 0.562500
vt 0.562500 0.062500
vt 0.562500 0.500000
vt 0.578125 1.000000
vt 0.562500 0.937500
vt 0.578125 0.000000
vt 0.562500 0.437500
vt 0.562500 0.875000
vt 0.531250 0.125000
vt 0.531250 0.062500
vt 0.531250 0.562500
vt 0.531250 0.500000
vt 0.546875 1.000000
vt 0.531250 0.937500
vt 0.546875 0.000000
vt 0.531250 0.437500
vt 0.531250 0.875000
vt 0.531250 0.375000
vt 0.531250 0.812500
vt 0.531250 0.312500
vt 0.531250 0.750000
vt 0.531250 0.250000
vt 0.531250 0.687500
vt 0.531250 0.187500
vt 0.531250 0.625000
vt 0.500000 0.812500
vt 0.500000 0.750000
vt 0.500000 0.312500
vt 0.500000 0.250000
vt 0.500000 0.687500
vt 0.500000 0.187500
vt 0.500000 0.625000
vt 0.500000 0.125000
vt 0.500000 0.562500
vt 0.500000 0.062500
vt 0.500000 0.500000
vt 0.515625 1.000000
vt 0.500000 0.937500
vt 0.515625 0.000000
vt 0.500000 0.437500
vt 0.500000 0.875000
vt 0.500000 0.375000
vt 0.468750 0.562500
vt 0.468750 0.500000
vt 0.484375 1.000000
vt 0.468750 0.937500
vt 0.484375 0.000000
vt 0.468750 0.062500
vt 0.468750 0.437500
vt 0.468750 0.875000
vt 0.468750 0.375000
vt 0.468750 0.812500
vt 0.468750 0.312500
vt 0.468750 0.750000
vt 0.468750 0.250000
vt 0.468750 0.687500
vt 0.468750 0.187500
vt 0.468750 0.625000
vt 0.468750 0.125000
vt 0.437500 0.312500
vt 0.437500 0.250000
vt 0.437500 0.750000
vt 0.437500 0.687500
vt 0.437500 0.187500
vt 0.437500 0.625000
vt 0.437500 0.125000
vt 0.437500 0.562500
vt 0.437500 0.062500
vt 0.437500 0.500000
vt 0.453125 1.000000
vt 0.437500 0.937500
vt 0.453125 0.000000
vt 0.437500 0.437500
vt 0.437500 0.875000
vt 0.437500 0.375000
vt 0.437500 0.812500
vt 0.421875 1.000000
vt 0.406250 0.937500
vt 0.421875 0.000000
vt 0.406250 0.062500
vt 0.406250 0.500000
vt 0.406250 0.437500
vt 0.406250 0.875000
vt 0.406250 0.375000
vt 0.406250 0.812500
vt 0.406250 0.312500
vt 0.406250 0.750000
vt 0.406250 0.250000
vt 0.406250 0.687500
vt 0.406250 0.187500
vt 0.406250 0.625000
vt 0.406250 0.125000
vt 0.406250 0.562500
vt 0.375000 0.750000
vt 0.375000 0.687500
vt 0.375000 0.250000
vt 0.375000 0.187500
vt 0.375000 0.625000
vt 0.375000 0.125000
vt 0.375000 0.562500
vt 0.375000 0.062500
vt 0.375000 0.500000
vt 0.390625 1.000000
vt 0.375000 0.937500
vt 0.390625 0.000000
vt 0.375000 0.437500
vt 0.375000 0.875000
vt 0.375000 0.375000
vt 0.375000 0.812500
vt 0.375000 0.312500
vt 0.343750 0.500000
vt 0.343750 0.437500
vt 0.343750 0.937500
vt 0.343750 0.875000
vt 0.343750 0.375000
vt 0.343750 0.812500
vt 0.343750 0.312500
vt 0.343750 0.750000
vt 0.343750 0.250000
vt 0.343750 0.687500
vt 0.343750 0.187500
vt 0.343750 0.625000
vt 0.343750 0.125000
vt 0.343750 0.562500
vt 0.343750 0.062500
vt 0.359375 1.000000
vt 0.359375 0.000000
vt 0.312500 0.250000
vt 0.312500 0.187500
vt 0.312500 0.687500
vt 0.312500 0.625000
vt 0.312500 0.125000
vt 0.312500 0.562500
vt 0.312500 0.062500
vt 0.312500 0.500000
vt 0.328125 1.000000
vt 0.312500 0.937500
vt 0.328125 0.000000
vt 0.312500 0.437500
vt 0.312500 0.875000
vt 0.312500 0.375000
vt 0.312500 0.812500
vt 0.312500 0.312500
vt 0.312500 0.750000
vt 0.281250 0.437500
vt 0.281250 0.375000
vt 0.281250 0.875000
vt 0.281250 0.812500
vt 0.281250 0.312500
vt 0.281250 0.750000
vt 0.281250 0.250000
vt 0.281250 0.687500
vt 0.281250 0.187500
vt 0.281250 0.625000
vt 0.281250 0.125000
vt 0.281250 0.562500
vt 0.281250 0.062500
vt 0.281250 0.500000
vt 0.296875 1.000000
vt 0.281250 0.937500
vt 0.296875 0.000000
vt 0.250000 0.187500
vt 0.250000 0.125000
vt 0.250000 0.625000
vt 0.250000 0.562500
vt 0.250000 0.062500
vt 0.250000 0.500000
vt 0.265625 1.000000
vt 0.250000 0.937500
vt 0.265625 0.000000
vt 0.250000 0.437500
vt 0.250000 0.875000
vt 0.250000 0.375000
vt 0.250000 0.812500
vt 0.250000 0.312500
vt 0.250000 0.750000
vt 0.250000 0.250000
vt 0.250000 0.687500
vt 0.218750 0.875000
vt 0.218750 0.812500
vt 0.218750 0.375000
vt 0.218750 0.312500
vt 0.218750 0.750000
vt 0.218750 0.250000
vt 0.218750 0.687500
vt 0.218750 0.187500
vt 0.218750 0.625000
vt 0.218750 0.125000
vt 0.218750 0.562500
vt 0.218750 0.062500
vt 0.218750 0.500000
vt 0.234375 1.000000
vt 0.218750 0.937500
vt 0.234375 0.000000
vt 0.218750 0.437500
vt 0.187500 0.625000
vt 0.187500 0.562500
vt 0.187500 0.125000
vt 0.187500 0.062500
vt 0.187500 0.500000
vt 0.203125 1.000000
vt 0.187500 0.937500
vt 0.203125 0.000000
vt 0.187500 0.437500
vt 0.187500 0.875000
vt 0.187500 0.375000
vt 0.187500 0.812500
vt 0.187500 0.312500
vt 0.187500 0.750000
vt 0.187500 0.250000
vt 0.187500 0.687500
vt 0.187500 0.187500
vt 0.156250 0.375000
vt 0.156250 0.312500
vt 0.156250 0.812500
vt 0.156250 0.750000
vt 0.156250 0.250000
vt 0.156250 0.687500
vt 0.156250 0.187500
vt 0.156250 0.625000
vt 0.156250 0.125000
vt 0.156250 0.562500
vt 0.156250 0.062500
vt 0.156250 0.500000
vt 0.171875 1.000000
vt 0.156250 0.937500
vt 0.171875 0.000000
vt 0.156250 0.437500
vt 0.156250 0.875000
vt 0.125000 0.125000
vt 0.125000 0.062500
vt 0.125000 0.562500
vt 0.125000 0.500000
vt 0.140625 1.000000
vt 0.125000 0.937500
vt 0.140625 0.000000
vt 0.125000 0.437500
vt 0.125000 0.875000
vt 0.125000 0.375000
vt 0.125000 0.812500
vt 0.125000 0.312500
vt 0.125000 0.750000
vt 0.125000 0.250000
vt 0.125000 0.687500
vt 0.125000 0.187500
vt 0.125000 0.625000
vt 0.093750 0.812500
vt 0.093750 0.750000
vt 0.093750 0.312500
vt 0.093750 0.250000
vt 0.093750 0.687500
vt 0.093750 0.187500
vt 0.093750 0.625000
vt 0.093750 0.125000
vt 0.093750 0.562500
vt 0.093750 0.062500
vt 0.093750 0.500000
vt 0.109375 1.000000
vt 0.093750 0.937500
vt 0.109375 0.000000
vt 0.093750 0.437500
vt 0.093750 0.875000
vt 0.093750 0.375000
vt 0.062500 0.562500
vt 0.062500 0.500000
vt 0.078125 1.000000
vt 0.062500 0.937500
vt 0.078125 0.000000
vt 0.062500 0.062500
vt 0.062500 0.437500
vt 0.062500 0.875000
vt 0.062500 0.375000
vt 0.062500 0.812500
vt 0.062500 0.312500
vt 0.062500 0.750000
vt 0.062500 0.250000
vt 0.062500 0.687500
vt 0.062500 0.187500
vt 0.062500 0.625000
vt 0.062500 0.125000
vt 0.031250 0.312500
vt 0.031250 0.250000
vt 0.031250 0.750000
vt 0.031250 0.687500
vt 0.031250 0.187500
vt 0.031250 0.625000
vt 0.031250 0.125000
vt 0.031250 0.562500
vt 0.031250 0.062500
vt 0.031250 0.500000
vt 0.046875 1.000000
vt 0.031250 0.937500
vt 0.046875 0.000000
vt 0.031250 0.437500
vt 0.031250 0.875000
vt 0.031250 0.375000
vt 0.031250 0.812500
vt 0.015625 0.000000
vt 0.000000 0.062500
vt 0.000000 0.500000
vt 0.000000 0.437500
vt 0.000000 0.937500
vt 0.000000 0.875000
vt 0.000000 0.375000
vt 0.000000 0.812500
vt 0.000000 0.312500
vt 0.000000 0.750000
vt 0.000000 0.250000
vt 0.000000 0.687500
vt 0.000000 0.187500
vt 0.000000 0.625000
vt 0.000000 0.125000
vt 0.000000 0.562500
vt 0.015625 1.000000
vt 1.000000 0.187500
vt 1.000000 0.250000
vt 0.968750 0.250000
vt 0.968750 0.187500
vt 1.000000 0.625000
vt 1.000000 0.687500
vt 0.968750 0.687500
vt 0.968750 0.625000
vt 1.000000 0.125000
vt 0.968750 0.125000
vt 1.000000 0.562500
vt 0.968750 0.562500
vt 1.000000 0.062500
vt 0.968750 0.062500
vt 1.000000 0.500000
vt 0.968750 0.500000
vt 1.000000 0.937500
vt 0.984375 1.000000
vt 0.968750 0.937500
vt 0.984375 0.000000
vt 1.000000 0.437500
vt 0.968750 0.437500
vt 1.000000 0.875000
vt 0.968750 0.875000
vt 1.000000 0.375000
vt 0.968750 0.375000
vt 1.000000 0.812500
vt 0.968750 0.812500
vt 1.000000 0.312500
vt 0.968750 0.312500
vt 1.000000 0.750000
vt 0.968750 0.750000
vt 0.937500 0.937500
vt 0.937500 0.875000
vt 0.937500 0.437500
vt 0.937500 0.375000
vt 0.937500 0.812500
vt 0.937500 0.312500
vt 0.937500 0.750000
vt 0.937500 0.250000
vt 0.937500 0.687500
vt 0.937500 0.187500
vt 0.937500 0.625000
vt 0.937500 0.125000
vt 0.937500 0.562500
vt 0.937500 0.062500
vt 0.937500 0.500000
vt 0.953125 1.000000
vt 0.953125 0.000000
vt 0.906250 0.687500
vt 0.906250 0.625000
vt 0.906250 0.187500
vt 0.906250 0.125000
vt 0.906250 0.562500
vt 0.906250 0.062500
vt 0.906250 0.500000
vt 0.921875 1.000000
vt 0.906250 0.937500
vt 0.921875 0.000000
vt 0.906250 0.437500
vt 0.906250 0.875000
vt 0.906250 0.375000
vt 0.906250 0.812500
vt 0.906250 0.312500
vt 0.906250 0.750000
vt 0.906250 0.250000
vt 0.875000 0.437500
vt 0.875000 0.375000
vt 0.875000 0.875000
vt 0.875000 0.812500
vt 0.875000 0.312500
vt 0.875000 0.750000
vt 0.875000 0.250000
vt 0.875000 0.687500
vt 0.875000 0.187500
vt 0.875000 0.625000
vt 0.875000 0.125000
vt 0.875000 0.562500
vt 0.875000 0.062500
vt 0.875000 0.500000
vt 0.890625 1.000000
vt 0.875000 0.937500
vt 0.890625 0.000000
vt 0.843750 0.187500
vt 0.843750 0.125000
vt 0.843750 0.625000
vt 0.843750 0.562500
vt 0.843750 0.062500
vt 0.843750 0.500000
vt 0.859375 1.000000
vt 0.843750 0.937500
vt 0.859375 0.000000
vt 0.843750 0.437500
vt 0.843750 0.875000
vt 0.843750 0.375000
vt 0.843750 0.812500
vt 0.843750 0.312500
vt 0.843750 0.750000
vt 0.843750 0.250000
vt 0.843750 0.687500
vt 0.812500 0.875000
vt 0.812500 0.812500
vt 0.812500 0.375000
vt 0.812500 0.312500
vt 0.812500 0.750000
vt 0.812500 0.250000
vt 0.812500 0.687500
vt 0.812500 0.187500
vt 0.812500 0.625000
vt 0.812500 0.125000
vt 0.812500 0.562500
vt 0.812500 0.062500
vt 0.812500 0.500000
vt 0.828125 1.000000
vt 0.812500 0.937500
vt 0.828125 0.000000
vt 0.812500 0.437500
vt 0.781250 0.625000
vt 0.781250 0.562500
vt 0.781250 0.125000
vt 0.781250 0.062500
vt 0.781250 0.500000
vt 0.796875 1.000000
vt 0.781250 0.937500
vt 0.796875 0.000000
vt 0.781250 0.437500
vt 0.781250 0.875000
vt 0.781250 0.375000
vt 0.781250 0.812500
vt 0.781250 0.312500
vt 0.781250 0.750000
vt 0.781250 0.250000
vt 0.781250 0.687500
vt 0.781250 0.187500
vt 0.765625 1.000000
vt 0.765625 0.000000
s 0
f 7/1/1 478/2/1 18/3/1 19/4/1
f 476/5/2 2/6/2 11/7/2 12/8/2
f 479/9/3 7/1/3 19/4/3 20/10/3
f 3/11/4 476/5/4 12/8/4 13/12/4
f 480/13/5 479/9/5 20/10/5 21/14/5
f 477/15/6 3/11/6 13/12/6 14/16/6
f 481/17/7 480/13/7 21/14/7 22/18/7
f 4/19/8 477/15/8 14/16/8 15/20/8
f 482/21/9 481/17/9 22/18/9 23/22/9
f 5/23/10 4/19/10 15/20/10 16/24/10
f 474/25/11 1/26/11 9/27/11
f 8/28/12 482/21/12 23/22/12
f 6/29/13 5/23/13 16/24/13 17/30/13
f 475/31/14 474/25/14 9/27/14 10/32/14
f 478/2/15 6/29/15 17/30/15 18/3/15
f 2/6/16 475/31/16 10/32/16 11/7/16
f 10/32/17 9/27/17 24/33/17 25/34/17
f 18/3/18 17/30/18 32/35/18 33/36/18
f 11/7/19 10/32/19 25/34/19 26/37/19
f 19/4/20 18/3/20 33/36/20 34/38/20
f 12/8/21 11/7/21 26/37/21 27/39/21
f 20/10/22 19/4/22 34/38/22 35/40/22
f 13/12/23 12/8/23 27/39/23 28/41/23
f 21/14/24 20/10/24 35/40/24 36/42/24
f 14/16/25 13/12/25 28/41/25 29/43/25
f 22/18/26 21/14/26 36/42/26 37/44/26
f 15/20/27 14/16/27 29/43/27 30/45/27
f 23/22/28 22/18/28 37/44/28 38/46/28
f 16/24/29 15/20/29 30/45/29 31/47/29
f 9/27/30 1/48/30 24/33/30
f 8/49/31 23/22/31 38/46/31
f 17/30/32 16/24/32 31/47/32 32/35/32
f 29/43/33 28/41/33 43/50/33 44/51/33
f 37/44/34 36/42/34 51/52/34 52/53/34
f 30/45/35 29/43/35 44/51/35 45/54/35
f 38/46/36 37/44/36 52/53/36 53/55/36
f 31/47/37 30/45/37 45/54/37 46/56/37
f 24/33/38 1/57/38 39/58/38
f 8/59/39 38/46/39 53/55/39
f 32/35/40 31/47/40 46/56/40 47/60/40
f 25/34/41 24/33/41 39/58/41 40/61/41
f 33/36/42 32/35/42 47/60/42 48/62/42
f 26/37/43 25/34/43 40/61/43 41/63/43
f 34/38/44 33/36/44 48/62/44 49/64/44
f 27/39/45 26/37/45 41/63/45 42/65/45
f 35/40/46 34/38/46 49/64/46 50/66/46
f 28/41/47 27/39/47 42/65/47 43/50/47
f 36/42/48 35/40/48 50/66/48 51/52/48
f 48/62/49 47/60/49 62/67/49 63/68/49
f 41/63/50 40/61/50 55/69/50 56/70/50
f 49/64/51 48/62/51 63/68/51 64/71/51
f 42/65/52 41/63/52 56/70/52 57/72/52
f 50/66/53 49/64/53 64/71/53 65/73/53
f 43/50/54 42/65/54 57/72/54 58/74/54
f 51/52/55 50/66/55 65/73/55 66/75/55
f 44/51/56 43/50/56 58/74/56 59/76/56
f 52/53/57 51/52/57 66/75/57 67/77/57
f 45/54/58 44/51/58 59/76/58 60/78/58
f 53/55/59 52/53/59 67/77/59 68/79/59
f 46/56/60 45/54/60 60/78/60 61/80/60
f 39/58/61 1/81/61 54/82/61
f 8/83/62 53/55/62 68/79/62
f 47/60/63 46/56/63 61/80/63 62/67/63
f 40/61/64 39/58/64 54/82/64 55/69/64
f 67/77/65 66/75/65 81/84/65 82/85/65
f 60/78/66 59/76/66 74/86/66 75/87/66
f 68/79/67 67/77/67 82/85/67 83/88/67
f 61/80/68 60/78/68 75/87/68 76/89/68
f 54/82/69 1/90/69 69/91/69
f 8/92/70 68/79/70 83/88/70
f 62/67/71 61/80/71 76/89/71 77/93/71
f 55/69/72 54/82/72 69/91/72 70/94/72
f 63/68/73 62/67/73 77/93/73 78/95/73
f 56/70/74 55/69/74 70/94/74 71/96/74
f 64/71/75 63/68/75 78/95/75 79/97/75
f 57/72/76 56/70/76 71/96/76 72/98/76
f 65/73/77 64/71/77 79/97/77 80/99/77
f 58/74/78 57/72/78 72/98/78 73/100/78
f 66/75/79 65/73/79 80/99/79 81/84/79
f 59/76/80 58/74/80 73/100/80 74/86/80
f 79/97/81 78/95/81 93/101/81 94/102/81
f 72/98/82 71/96/82 86/103/82 87/104/82
f 80/99/83 79/97/83 94/102/83 95/105/83
f 73/100/84 72/98/84 87/104/84 88/106/84
f 81/84/85 80/99/85 95/105/85 96/107/85
f 74/86/86 73/100/86 88/106/86 89/108/86
f 82/85/87 81/84/87 96/107/87 97/109/87
f 75/87/88 74/86/88 89/108/88 90/110/88
f 83/88/89 82/85/89 97/109/89 98/111/89
f 76/89/90 75/87/90 90/110/90 91/112/90
f 69/91/91 1/113/91 84/114/91
f 8/115/92 83/88/92 98/111/92
f 77/93/93 76/89/93 91/112/93 92/116/93
f 70/94/94 69/91/94 84/114/94 85/117/94
f 78/95/95 77/93/95 92/116/95 93/101/95
f 71/96/96 70/94/96 85/117/96 86/103/96
f 98/111/97 97/109/97 112/118/97 113/119/97
f 91/112/98 90/110/98 105/120/98 106/121/98
f 84/114/99 1/122/99 99/123/99
f 8/124/100 98/111/100 113/119/100
f 92/116/101 91/112/101 106/121/101 107/125/101
f 85/117/102 84/114/102 99/123/102 100/126/102
f 93/101/103 92/116/103 107/125/103 108/127/103
f 86/103/104 85/117/104 100/126/104 101/128/104
f 94/102/105 93/101/105 108/127/105 109/129/105
f 87/104/106 86/103/106 101/128/106 102/130/106
f 95/105/107 94/102/107 109/129/107 110/131/107
f 88/106/108 87/104/108 102/130/108 103/132/108
f 96/107/109 95/105/109 110/131/109 111/133/109
f 89/108/110 88/106/110 103/132/110 104/134/110
f 97/109/111 96/107/111 111/133/111 112/118/111
f 90/110/112 89/108/112 104/134/112 105/120/112
f 102/130/113 101/128/113 116/135/113 117/136/113
f 110/131/114 109/129/114 124/137/114 125/138/114
f 103/132/115 102/130/115 117/136/115 118/139/115
f 111/133/116 110/131/116 125/138/116 126/140/116
f 104/134/117 103/132/117 118/139/117 119/141/117
f 112/118/118 111/133/118 126/140/118 127/142/118
f 105/120/119 104/134/119 119/141/119 120/143/119
f 113/119/120 112/118/120 127/142/120 128/144/120
f 106/121/121 105/120/121 120/143/121 121/145/121
f 99/123/122 1/146/122 114/147/122
f 8/148/123 113/119/123 128/144/123
f 107/125/124 106/121/124 121/145/124 122/149/124
f 100/126/125 99/123/125 114/147/125 115/150/125
f 108/127/126 107/125/126 122/149/126 123/151/126
f 101/128/127 100/126/127 115/150/127 116/135/127
f 109/129/128 108/127/128 123/151/128 124/137/128
f 121/145/129 120/143/129 135/152/129 136/153/129
f 114/147/130 1/154/130 129/155/130
f 8/156/131 128/144/131 143/157/131
f 122/149/132 121/145/132 136/153/132 137/158/132
f 115/150/133 114/147/133 129/155/133 130/159/133
f 123/151/134 122/149/134 137/158/134 138/160/134
f 116/135/135 115/150/135 130/159/135 131/161/135
f 124/137/136 123/151/136 138/160/136 139/162/136
f 117/136/137 116/135/137 131/161/137 132/163/137
f 125/138/138 124/137/138 139/162/138 140/164/138
f 118/139/139 117/136/139 132/163/139 133/165/139
f 126/140/140 125/138/140 140/164/140 141/166/140
f 119/141/141 118/139/141 133/165/141 134/167/141
f 127/142/142 126/140/142 141/166/142 142/168/142
f 120/143/143 119/141/143 134/167/143 135/152/143
f 128/144/144 127/142/144 142/168/144 143/157/144
f 140/164/145 139/162/145 154/169/145 155/170/145
f 133/165/146 132/163/146 147/171/146 148/172/146
f 141/166/147 140/164/147 155/170/147 156/173/147
f 134/167/148 133/165/148 148/172/148 149/174/148
f 142/168/149 141/166/149 156/173/149 157/175/149
f 135/152/150 134/167/150 149/174/150 150/176/150
f 143/157/151 142/168/151 157/175/151 158/177/151
f 136/153/152 135/152/152 150/176/152 151/178/152
f 129/155/153 1/179/153 144/180/153
f 8/181/154 143/157/154 158/177/154
f 137/158/155 136/153/155 151/178/155 152/182/155
f 130/159/156 129/155/156 144/180/156 145/183/156
f 138/160/157 137/158/157 152/182/157 153/184/157
f 131/161/158 130/159/158 145/183/158 146/185/158
f 139/162/159 138/160/159 153/184/159 154/169/159
f 132/163/160 131/161/160 146/185/160 147/171/160
f 144/180/161 1/186/161 159/187/161
f 8/188/162 158/177/162 173/189/162
f 152/182/163 151/178/163 166/190/163 167/191/163
f 145/183/164 144/180/164 159/187/164 160/192/164
f 153/184/165 152/182/165 167/191/165 168/193/165
f 146/185/166 145/183/166 160/192/166 161/194/166
f 154/169/167 153/184/167 168/193/167 169/195/167
f 147/171/168 146/185/168 161/194/168 162/196/168
f 155/170/169 154/169/169 169/195/169 170/197/169
f 148/172/170 147/171/170 162/196/170 163/198/170
f 156/173/171 155/170/171 170/197/171 171/199/171
f 149/174/172 148/172/172 163/198/172 164/200/172
f 157/175/173 156/173/173 171/199/173 172/201/173
f 150/176/174 149/174/174 164/200/174 165/202/174
f 158/177/175 157/175/175 172/201/175 173/189/175
f 151/178/176 150/176/176 165/202/176 166/190/176
f 163/198/177 162/196/177 177/203/177 178/204/177
f 171/199/178 170/197/178 185/205/178 186/206/178
f 164/200/179 163/198/179 178/204/179 179/207/179
f 172/201/180 171/199/180 186/206/180 187/208/180
f 165/202/181 164/200/181 179/207/181 180/209/181
f 173/189/182 172/201/182 187/208/182 188/210/182
f 166/190/183 165/202/183 180/209/183 181/211/183
f 159/187/184 1/212/184 174/213/184
f 8/214/185 173/189/185 188/210/185
f 167/191/186 166/190/186 181/211/186 182/215/186
f 160/192/187 159/187/187 174/213/187 175/216/187
f 168/193/188 167/191/188 182/215/188 183/217/188
f 161/194/189 160/192/189 175/216/189 176/218/189
f 169/195/190 168/193/190 183/217/190 184/219/190
f 162/196/191 161/194/191 176/218/191 177/203/191
f 170/197/192 169/195/192 184/219/192 185/205/192
f 182/215/193 181/211/193 196/220/193 197/221/193
f 175/216/194 174/213/194 189/222/194 190/223/194
f 183/217/195 182/215/195 197/221/195 198/224/195
f 176/218/196 175/216/196 190/223/196 191/225/196
f 184/219/197 183/217/197 198/224/197 199/226/197
f 177/203/198 176/218/198 191/225/198 192/227/198
f 185/205/199 184/219/199 199/226/199 200/228/199
f 178/204/200 177/203/200 192/227/200 193/229/200
f 186/206/201 185/205/201 200/228/201 201/230/201
f 179/207/202 178/204/202 193/229/202 194/231/202
f 187/208/203 186/206/203 201/230/203 202/232/203
f 180/209/204 179/207/204 194/231/204 195/233/204
f 188/210/205 187/208/205 202/232/205 203/234/205
f 181/211/206 180/209/206 195/233/206 196/220/206
f 174/213/207 1/235/207 189/222/207
f 8/236/208 188/210/208 203/234/208
f 201/230/209 200/228/209 215/237/209 216/238/209
f 194/231/210 193/229/210 208/239/210 209/240/210
f 202/232/211 201/230/211 216/238/211 217/241/211
f 195/233/212 194/231/212 209/240/212 210/242/212
f 203/234/213 202/232/213 217/241/213 218/243/213
f 196/220/214 195/233/214 210/242/214 211/244/214
f 189/222/215 1/245/215 204/246/215
f 8/247/216 203/234/216 218/243/216
f 197/221/217 196/220/217 211/244/217 212/248/217
f 190/223/218 189/222/218 204/246/218 205/249/218
f 198/224/219 197/221/219 212/248/219 213/250/219
f 191/225/220 190/223/220 205/249/220 206/251/220
f 199/226/221 198/224/221 213/250/221 214/252/221
f 192/227/222 191/225/222 206/251/222 207/253/222
f 200/228/223 199/226/223 214/252/223 215/237/223
f 193/229/224 192/227/224 207/253/224 208/239/224
f 213/250/225 212/248/225 227/254/225 228/255/225
f 206/251/226 205/249/226 220/256/226 221/257/226
f 214/252/227 213/250/227 228/255/227 229/258/227
f 207/253/228 206/251/228 221/257/228 222/259/228
f 215/237/229 214/252/229 229/258/229 230/260/229
f 208/239/230 207/253/230 222/259/230 223/261/230
f 216/238/231 215/237/231 230/260/231 231/262/231
f 209/240/232 208/239/232 223/261/232 224/263/232
f 217/241/233 216/238/233 231/262/233 232/264/233
f 210/242/234 209/240/234 224/263/234 225/265/234
f 218/243/235 217/241/235 232/264/235 233/266/235
f 211/244/236 210/242/236 225/265/236 226/267/236
f 204/246/237 1/268/237 219/269/237
f 8/270/238 218/243/238 233/266/238
f 212/248/239 211/244/239 226/267/239 227/254/239
f 205/249/240 204/246/240 219/269/240 220/256/240
f 232/264/241 231/262/241 246/271/241 247/272/241
f 225/265/242 224/263/242 239/273/242 240/274/242
f 233/266/243 232/264/243 247/272/243 248/275/243
f 226/267/244 225/265/244 240/274/244 241/276/244
f 219/269/245 1/277/245 234/278/245
f 8/279/246 233/266/246 248/275/246
f 227/254/247 226/267/247 241/276/247 242/280/247
f 220/256/248 219/269/248 234/278/248 235/281/248
f 228/255/249 227/254/249 242/280/249 243/282/249
f 221/257/250 220/256/250 235/281/250 236/283/250
f 229/258/251 228/255/251 243/282/251 244/284/251
f 222/259/252 221/257/252 236/283/252 237/285/252
f 230/260/253 229/258/253 244/284/253 245/286/253
f 223/261/254 222/259/254 237/285/254 238/287/254
f 231/262/255 230/260/255 245/286/255 246/271/255
f 224/263/256 223/261/256 238/287/256 239/273/256
f 236/283/257 235/281/257 250/288/257 251/289/257
f 244/284/258 243/282/258 258/290/258 259/291/258
f 237/285/259 236/283/259 251/289/259 252/292/259
f 245/286/260 244/284/260 259/291/260 260/293/260
f 238/287/261 237/285/261 252/292/261 253/294/261
f 246/271/262 245/286/262 260/293/262 261/295/262
f 239/273/263 238/287/263 253/294/263 254/296/263
f 247/272/264 246/271/264 261/295/264 262/297/264
f 240/274/265 239/273/265 254/296/265 255/298/265
f 248/275/266 247/272/266 262/297/266 263/299/266
f 241/276/267 240/274/267 255/298/267 256/300/267
f 234/278/268 1/301/268 249/302/268
f 8/303/269 248/275/269 263/299/269
f 242/280/270 241/276/270 256/300/270 257/304/270
f 235/281/271 234/278/271 249/302/271 250/288/271
f 243/282/272 242/280/272 257/304/272 258/290/272
f 255/298/273 254/296/273 269/305/273 270/306/273
f 263/299/274 262/297/274 277/307/274 278/308/274
f 256/300/275 255/298/275 270/306/275 271/309/275
f 249/302/276 1/310/276 264/311/276
f 8/312/277 263/299/277 278/308/277
f 257/304/278 256/300/278 271/309/278 272/313/278
f 250/288/279 249/302/279 264/311/279 265/314/279
f 258/290/280 257/304/280 272/313/280 273/315/280
f 251/289/281 250/288/281 265/314/281 266/316/281
f 259/291/282 258/290/282 273/315/282 274/317/282
f 252/292/283 251/289/283 266/316/283 267/318/283
f 260/293/284 259/291/284 274/317/284 275/319/284
f 253/294/285 252/292/285 267/318/285 268/320/285
f 261/295/286 260/293/286 275/319/286 276/321/286
f 254/296/287 253/294/287 268/320/287 269/305/287
f 262/297/288 261/295/288 276/321/288 277/307/288
f 274/317/289 273/315/289 288/322/289 289/323/289
f 267/318/290 266/316/290 281/324/290 282/325/290
f 275/319/291 274/317/291 289/323/291 290/326/291
f 268/320/292 267/318/292 282/325/292 283/327/292
f 276/321/293 275/319/293 290/326/293 291/328/293
f 269/305/294 268/320/294 283/327/294 284/329/294
f 277/307/295 276/321/295 291/328/295 292/330/295
f 270/306/296 269/305/296 284/329/296 285/331/296
f 278/308/297 277/307/297 292/330/297 293/332/297
f 271/309/298 270/306/298 285/331/298 286/333/298
f 264/311/299 1/334/299 279/335/299
f 8/336/300 278/308/300 293/332/300
f 272/313/301 271/309/301 286/333/301 287/337/301
f 265/314/302 264/311/302 279/335/302 280/338/302
f 273/315/303 272/313/303 287/337/303 288/322/303
f 266/316/304 265/314/304 280/338/304 281/324/304
f 293/332/305 292/330/305 307/339/305 308/340/305
f 286/333/306 285/331/306 300/341/306 301/342/306
f 279/335/307 1/343/307 294/344/307
f 8/345/308 293/332/308 308/340/308
f 287/337/309 286/333/309 301/342/309 302/346/309
f 280/338/310 279/335/310 294/344/310 295/347/310
f 288/322/311 287/337/311 302/346/311 303/348/311
f 281/324/312 280/338/312 295/347/312 296/349/312
f 289/323/313 288/322/313 303/348/313 304/350/313
f 282/325/314 281/324/314 296/349/314 297/351/314
f 290/326/315 289/323/315 304/350/315 305/352/315
f 283/327/316 282/325/316 297/351/316 298/353/316
f 291/328/317 290/326/317 305/352/317 306/354/317
f 284/329/318 283/327/318 298/353/318 299/355/318
f 292/330/319 291/328/319 306/354/319 307/339/319
f 285/331/320 284/329/320 299/355/320 300/341/320
f 297/351/321 296/349/321 311/356/321 312/357/321
f 305/352/322 304/350/322 319/358/322 320/359/322
f 298/353/323 297/351/323 312/357/323 313/360/323
f 306/354/324 305/352/324 320/359/324 321/361/324
f 299/355/325 298/353/325 313/360/325 314/362/325
f 307/339/326 306/354/326 321/361/326 322/363/326
f 300/341/327 299/355/327 314/362/327 315/364/327
f 308/340/328 307/339/328 322/363/328 323/365/328
f 301/342/329 300/341/329 315/364/329 316/366/329
f 294/344/330 1/367/330 309/368/330
f 8/369/331 308/340/331 323/365/331
f 302/346/332 301/342/332 316/366/332 317/370/332
f 295/347/333 294/344/333 309/368/333 310/371/333
f 303/348/334 302/346/334 317/370/334 318/372/334
f 296/349/335 295/347/335 310/371/335 311/356/335
f 304/350/336 303/348/336 318/372/336 319/358/336
f 316/366/337 315/364/337 330/373/337 331/374/337
f 309/368/338 1/375/338 324/376/338
f 8/377/339 323/365/339 338/378/339
f 317/370/340 316/366/340 331/374/340 332/379/340
f 310/371/341 309/368/341 324/376/341 325/380/341
f 318/372/342 317/370/342 332/379/342 333/381/342
f 311/356/343 310/371/343 325/380/343 326/382/343
f 319/358/344 318/372/344 333/381/344 334/383/344
f 312/357/345 311/356/345 326/382/345 327/384/345
f 320/359/346 319/358/346 334/383/346 335/385/346
f 313/360/347 312/357/347 327/384/347 328/386/347
f 321/361/348 320/359/348 335/385/348 336/387/348
f 314/362/349 313/360/349 328/386/349 329/388/349
f 322/363/350 321/361/350 336/387/350 337/389/350
f 315/364/351 314/362/351 329/388/351 330/373/351
f 323/365/352 322/363/352 337/389/352 338/378/352
f 335/385/353 334/383/353 349/390/353 350/391/353
f 328/386/354 327/384/354 342/392/354 343/393/354
f 336/387/355 335/385/355 350/391/355 351/394/355
f 329/388/356 328/386/356 343/393/356 344/395/356
f 337/389/357 336/387/357 351/394/357 352/396/357
f 330/373/358 329/388/358 344/395/358 345/397/358
f 338/378/359 337/389/359 352/396/359 353/398/359
f 331/374/360 330/373/360 345/397/360 346/399/360
f 324/376/361 1/400/361 339/401/361
f 8/402/362 338/378/362 353/398/362
f 332/379/363 331/374/363 346/399/363 347/403/363
f 325/380/364 324/376/364 339/401/364 340/404/364
f 333/381/365 332/379/365 347/403/365 348/405/365
f 326/382/366 325/380/366 340/404/366 341/406/366
f 334/383/367 333/381/367 348/405/367 349/390/367
f 327/384/368 326/382/368 341/406/368 342/392/368
f 8/407/369 353/398/369 368/408/369
f 347/403/370 346/399/370 361/409/370 362/410/370
f 340/404/371 339/401/371 354/411/371 355/412/371
f 348/405/372 347/403/372 362/410/372 363/413/372
f 341/406/373 340/404/373 355/412/373 356/414/373
f 349/390/374 348/405/374 363/413/374 364/415/374
f 342/392/375 341/406/375 356/414/375 357/416/375
f 350/391/376 349/390/376 364/415/376 365/417/376
f 343/393/377 342/392/377 357/416/377 358/418/377
f 351/394/378 350/391/378 365/417/378 366/419/378
f 344/395/379 343/393/379 358/418/379 359/420/379
f 352/396/380 351/394/380 366/419/380 367/421/380
f 345/397/381 344/395/381 359/420/381 360/422/381
f 353/398/382 352/396/382 367/421/382 368/408/382
f 346/399/383 345/397/383 360/422/383 361/409/383
f 339/401/384 1/423/384 354/411/384
f 366/424/385 365/425/385 380/426/385 381/427/385
f 359/428/386 358/429/386 373/430/386 374/431/386
f 367/432/387 366/424/387 381/427/387 382/433/387
f 360/434/388 359/428/388 374/431/388 375/435/388
f 368/436/389 367/432/389 382/433/389 383/437/389
f 361/438/390 360/434/390 375/435/390 376/439/390
f 354/440/391 1/441/391 369/442/391
f 8/443/392 368/436/392 383/437/392
f 362/444/393 361/438/393 376/439/393 377/445/393
f 355/446/394 354/440/394 369/442/394 370/447/394
f 363/448/395 362/444/395 377/445/395 378/449/395
f 356/450/396 355/446/396 370/447/396 371/451/396
f 364/452/397 363/448/397 378/449/397 379/453/397
f 357/454/398 356/450/398 371/451/398 372/455/398
f 365/425/399 364/452/399 379/453/399 380/426/399
f 358/429/400 357/454/400 372/455/400 373/430/400
f 370/447/401 369/442/401 384/456/401 385/457/401
f 378/449/402 377/445/402 392/458/402 393/459/402
f 371/451/403 370/447/403 385/457/403 386/460/403
f 379/453/404 378/449/404 393/459/404 394/461/404
f 372/455/405 371/451/405 386/460/405 387/462/405
f 380/426/406 379/453/406 394/461/406 395/463/406
f 373/430/407 372/455/407 387/462/407 388/464/407
f 381/427/408 380/426/408 395/463/408 396/465/408
f 374/431/409 373/430/409 388/464/409 389/466/409
f 382/433/410 381/427/410 396/465/410 397/467/410
f 375/435/411 374/431/411 389/466/411 390/468/411
f 383/437/412 382/433/412 397/467/412 398/469/412
f 376/439/413 375/435/413 390/468/413 391/470/413
f 369/442/414 1/471/414 384/456/414
f 8/472/415 383/437/415 398/469/415
f 377/445/416 376/439/416 391/470/416 392/458/416
f 389/466/417 388/464/417 403/473/417 404/474/417
f 397/467/418 396/465/418 411/475/418 412/476/418
f 390/468/419 389/466/419 404/474/419 405/477/419
f 398/469/420 397/467/420 412/476/420 413/478/420
f 391/470/421 390/468/421 405/477/421 406/479/421
f 384/456/422 1/480/422 399/481/422
f 8/482/423 398/469/423 413/478/423
f 392/458/424 391/470/424 406/479/424 407/483/424
f 385/457/425 384/456/425 399/481/425 400/484/425
f 393/459/426 392/458/426 407/483/426 408/485/426
f 386/460/427 385/457/427 400/484/427 401/486/427
f 394/461/428 393/459/428 408/485/428 409/487/428
f 387/462/429 386/460/429 401/486/429 402/488/429
f 395/463/430 394/461/430 409/487/430 410/489/430
f 388/464/431 387/462/431 402/488/431 403/473/431
f 396/465/432 395/463/432 410/489/432 411/475/432
f 408/485/433 407/483/433 422/490/433 423/491/433
f 401/486/434 400/484/434 415/492/434 416/493/434
f 409/487/435 408/485/435 423/491/435 424/494/435
f 402/488/436 401/486/436 416/493/436 417/495/436
f 410/489/437 409/487/437 424/494/437 425/496/437
f 403/473/438 402/488/438 417/495/438 418/497/438
f 411/475/439 410/489/439 425/496/439 426/498/439
f 404/474/440 403/473/440 418/497/440 419/499/440
f 412/476/441 411/475/441 426/498/441 427/500/441
f 405/477/442 404/474/442 419/499/442 420/501/442
f 413/478/443 412/476/443 427/500/443 428/502/443
f 406/479/444 405/477/444 420/501/444 421/503/444
f 399/481/445 1/504/445 414/505/445
f 8/506/446 413/478/446 428/502/446
f 407/483/447 406/479/447 421/503/447 422/490/447
f 400/484/448 399/481/448 414/505/448 415/492/448
f 427/500/449 426/498/449 441/507/449 442/508/449
f 420/501/450 419/499/450 434/509/450 435/510/450
f 428/502/451 427/500/451 442/508/451 443/511/451
f 421/503/452 420/501/452 435/510/452 436/512/452
f 414/505/453 1/513/453 429/514/453
f 8/515/454 428/502/454 443/511/454
f 422/490/455 421/503/455 436/512/455 437/516/455
f 415/492/456 414/505/456 429/514/456 430/517/456
f 423/491/457 422/490/457 437/516/457 438/518/457
f 416/493/458 415/492/458 430/517/458 431/519/458
f 424/494/459 423/491/459 438/518/459 439/520/459
f 417/495/460 416/493/460 431/519/460 432/521/460
f 425/496/461 424/494/461 439/520/461 440/522/461
f 418/497/462 417/495/462 432/521/462 433/523/462
f 426/498/463 425/496/463 440/522/463 441/507/463
f 419/499/464 418/497/464 433/523/464 434/509/464
f 431/519/465 430/517/465 445/524/465 446/525/465
f 439/520/466 438/518/466 453/526/466 454/527/466
f 432/521/467 431/519/467 446/525/467 447/528/467
f 440/522/468 439/520/468 454/527/468 455/529/468
f 433/523/469 432/521/469 447/528/469 448/530/469
f 441/507/470 440/522/470 455/529/470 456/531/470
f 434/509/471 433/523/471 448/530/471 449/532/471
f 442/508/472 441/507/472 456/531/472 457/533/472
f 435/510/473 434/509/473 449/532/473 450/534/473
f 443/511/474 442/508/474 457/533/474 458/535/474
f 436/512/475 435/510/475 450/534/475 451/536/475
f 429/514/476 1/537/476 444/538/476
f 8/539/477 443/511/477 458/535/477
f 437/516/478 436/512/478 451/536/478 452/540/478
f 430/517/479 429/514/479 444/538/479 445/524/479
f 438/518/480 437/516/480 452/540/480 453/526/480
f 450/534/481 449/532/481 464/541/481 465/542/481
f 458/535/482 457/533/482 472/543/482 473/544/482
f 451/536/483 450/534/483 465/542/483 466/545/483
f 444/538/484 1/546/484 459/547/484
f 8/548/485 458/535/485 473/544/485
f 452/540/486 451/536/486 466/545/486 467/549/486
f 445/524/487 444/538/487 459/547/487 460/550/487
f 453/526/488 452/540/488 467/549/488 468/551/488
f 446/525/489 445/524/489 460/550/489 461/552/489
f 454/527/490 453/526/490 468/551/490 469/553/490
f 447/528/491 446/525/491 461/552/491 462/554/491
f 455/529/492 454/527/492 469/553/492 470/555/492
f 448/530/493 447/528/493 462/554/493 463/556/493
f 456/531/494 455/529/494 470/555/494 471/557/494
f 449/532/495 448/530/495 463/556/495 464/541/495
f 457/533/496 456/531/496 471/557/496 472/543/496
f 469/553/497 468/551/497 478/2/497 7/1/497
f 462/554/498 461/552/498 2/6/498 476/5/498
f 470/555/499 469/553/499 7/1/499 479/9/499
f 463/556/500 462/554/500 476/5/500 3/11/500
f 471/557/501 470/555/501 479/9/501 480/13/501
f 464/541/502 463/556/502 3/11/502 477/15/502
f 472/543/503 471/557/503 480/13/503 481/17/503
f 465/542/504 464/541/504 477/15/504 4/19/504
f 473/544/505 472/543/505 481/17/505 482/21/505
f 466/545/506 465/542/506 4/19/506 5/23/506
f 459/547/507 1/558/507 474/25/507
f 8/559/508 473/544/508 482/21/508
f 467/549/509 466/545/509 5/23/509 6/29/509
f 460/550/510 459/547/510 474/25/510 475/31/510
f 468/551/511 467/549/511 6/29/511 478/2/511
f 461/552/512 460/550/512 475/31/512 2/6/512
