# Blender 5.0.1
# www.blender.org
o star
v -0.003636 -0.003636 0.000000
v 0.003636 -0.003636 0.000000
v -0.003636 0.003636 0.000000
v 0.003636 0.003636 0.000000
v -0.020000 0.000000 0.000000
v 0.000000 -0.020000 0.000000
v 0.020000 0.000000 0.000000
v 0.000000 0.020000 0.000000
v 0.000000 0.000000 0.000000
vn -0.0000 -0.0000 1.0000
vt 0.500000 0.500000
vt 1.000000 1.000000
vt 0.500000 1.000000
vt 0.000000 1.000000
vt 0.000000 0.500000
vt 0.000000 0.000000
vt 1.000000 0.000000
vt 0.500000 0.000000
vt 1.000000 0.500000
s 0
f 9/1/1 4/2/1 8/3/1
f 9/1/1 3/4/1 5/5/1
f 1/6/1 9/1/1 5/5/1
f 2/7/1 9/1/1 6/8/1
f 9/1/1 7/9/1 4/2/1
f 9/1/1 8/3/1 3/4/1
f 1/6/1 6/8/1 9/1/1
f 2/7/1 7/9/1 9/1/1
